<svg width="237" height="180" viewBox="0 0 237 180" fill="none" xmlns="http://www.w3.org/2000/svg">
<g clip-path="url(#clip0)">
<path d="M12.3608 15.103C11.9597 15.1026 11.5747 15.2606 11.2904 15.5423C11.0061 15.8241 10.8456 16.2066 10.8442 16.606L10.4717 177.795C10.4712 178.195 10.6299 178.578 10.9129 178.861C11.1959 179.144 11.5801 179.304 11.9813 179.305L142.41 179.604C142.811 179.604 143.196 179.446 143.48 179.165C143.764 178.883 143.925 178.5 143.926 178.101L144.299 16.9118C144.299 16.5124 144.14 16.1291 143.857 15.8461C143.574 15.563 143.19 15.4032 142.789 15.4019L12.3608 15.103Z" fill="#E6E6E6"/>
<path d="M17.1914 19.9346C16.7903 19.9341 16.4053 20.0921 16.121 20.3739C15.8367 20.6556 15.6763 21.0382 15.6749 21.4375L15.3246 172.986C15.3241 173.385 15.4828 173.768 15.7658 174.051C16.0488 174.334 16.4331 174.494 16.8342 174.495L137.579 174.772C137.98 174.773 138.365 174.615 138.649 174.333C138.934 174.051 139.094 173.669 139.095 173.269L139.446 21.7211C139.446 21.3217 139.287 20.9385 139.004 20.6554C138.721 20.3723 138.337 20.2126 137.936 20.2112L17.1914 19.9346Z" fill="#FCFFFE"/>
<path d="M121.897 85.743L32.9274 85.5391C32.6292 85.5386 32.3341 85.4796 32.0588 85.3655C31.7836 85.2514 31.5336 85.0844 31.3232 84.874C31.1128 84.6637 30.9461 84.4142 30.8326 84.1397C30.7191 83.8652 30.661 83.5711 30.6617 83.2742C30.6624 82.9774 30.7218 82.6836 30.8366 82.4096C30.9514 82.1356 31.1192 81.8869 31.3306 81.6775C31.542 81.4681 31.7927 81.3023 32.0685 81.1894C32.3443 81.0766 32.6397 81.0189 32.9378 81.0198L121.908 81.2236C122.509 81.2253 123.086 81.4649 123.51 81.8896C123.934 82.3143 124.172 82.8894 124.171 83.4885C124.169 84.0876 123.929 84.6616 123.503 85.0843C123.076 85.5071 122.499 85.744 121.897 85.743Z" fill="#E6E6E6"/>
<path d="M122.758 43.6394L63.7331 43.5042C62.9015 43.5023 62.2297 42.489 62.2326 41.2411C62.2355 39.9931 62.9119 38.983 63.7435 38.9849L122.769 39.1201C123.6 39.122 124.272 40.1352 124.269 41.3832C124.266 42.6312 123.59 43.6413 122.758 43.6394Z" fill="#E6E6E6"/>
<path d="M122.728 56.5947L63.7031 56.4595C62.8715 56.4576 62.1997 55.4444 62.2026 54.1964C62.2055 52.9484 62.882 51.9383 63.7136 51.9402L122.739 52.0754C123.57 52.0773 124.242 53.0906 124.239 54.3385C124.236 55.5865 123.56 56.5967 122.728 56.5947Z" fill="#E6E6E6"/>
<path d="M121.863 100.355L32.8936 100.151C32.2919 100.15 31.7154 99.9102 31.291 99.4855C30.8667 99.0607 30.629 98.4856 30.6304 97.8865C30.6318 97.2875 30.8721 96.7134 31.2984 96.2907C31.7248 95.8679 32.3023 95.631 32.904 95.6321L121.874 95.8359C122.475 95.8376 123.052 96.0772 123.476 96.5019C123.901 96.9266 124.138 97.5017 124.137 98.1008C124.136 98.6999 123.895 99.2739 123.469 99.6966C123.043 100.119 122.465 100.356 121.863 100.355Z" fill="#E6E6E6"/>
<path d="M121.83 114.968L32.8598 114.764C32.5617 114.763 32.2665 114.704 31.9913 114.59C31.716 114.476 31.4661 114.309 31.2557 114.099C31.0453 113.889 30.8786 113.639 30.7651 113.365C30.6516 113.09 30.5935 112.796 30.5942 112.499C30.5949 112.202 30.6543 111.908 30.7691 111.634C30.8838 111.36 31.0517 111.112 31.2631 110.902C31.4744 110.693 31.7252 110.527 32.0009 110.414C32.2767 110.301 32.5721 110.244 32.8703 110.245L121.84 110.448C122.138 110.449 122.433 110.508 122.709 110.622C122.984 110.736 123.234 110.903 123.444 111.114C123.655 111.324 123.821 111.573 123.935 111.848C124.048 112.122 124.106 112.416 124.106 112.713C124.105 113.01 124.046 113.304 123.931 113.578C123.816 113.852 123.648 114.101 123.437 114.31C123.225 114.519 122.975 114.685 122.699 114.798C122.423 114.911 122.128 114.969 121.83 114.968Z" fill="#E6E6E6"/>
<path d="M121.796 129.58L32.826 129.376C32.528 129.376 32.233 129.316 31.9579 129.202C31.6828 129.088 31.433 128.921 31.2227 128.711C31.0124 128.5 30.8458 128.251 30.7324 127.977C30.619 127.702 30.5609 127.408 30.5616 127.111C30.5623 126.815 30.6217 126.521 30.7364 126.247C30.8511 125.973 31.0188 125.724 31.2301 125.515C31.4413 125.306 31.6919 125.14 31.9675 125.027C32.2432 124.914 32.5384 124.856 32.8365 124.857L121.806 125.061C122.408 125.062 122.984 125.302 123.409 125.727C123.833 126.151 124.071 126.727 124.069 127.326C124.068 127.925 123.828 128.499 123.401 128.922C122.975 129.344 122.397 129.581 121.796 129.58Z" fill="#E6E6E6"/>
<path d="M121.762 144.193L32.7923 143.989C32.1905 143.987 31.6141 143.748 31.1897 143.323C30.7653 142.898 30.5277 142.323 30.5291 141.724C30.5305 141.125 30.7707 140.551 31.1971 140.128C31.6235 139.706 32.201 139.469 32.8027 139.47L121.772 139.674C122.374 139.675 122.951 139.915 123.375 140.34C123.799 140.764 124.037 141.339 124.036 141.938C124.034 142.538 123.794 143.112 123.368 143.534C122.941 143.957 122.364 144.194 121.762 144.193Z" fill="#E6E6E6"/>
<path d="M121.728 158.805L32.7585 158.601C32.4604 158.601 32.1654 158.542 31.8903 158.427C31.6152 158.313 31.3654 158.146 31.1552 157.936C30.7305 157.511 30.4927 156.936 30.4941 156.337C30.4955 155.737 30.7359 155.163 31.1625 154.74C31.5892 154.317 32.167 154.081 32.7689 154.082L121.739 154.286C122.037 154.286 122.332 154.345 122.607 154.46C122.882 154.574 123.132 154.741 123.343 154.951C123.553 155.161 123.72 155.411 123.833 155.685C123.947 155.96 124.005 156.254 124.004 156.551C124.004 156.848 123.944 157.141 123.829 157.415C123.715 157.689 123.547 157.938 123.335 158.147C123.124 158.357 122.873 158.523 122.598 158.636C122.322 158.748 122.026 158.806 121.728 158.805Z" fill="#E6E6E6"/>
<path d="M42.6983 59.7257C49.3001 59.7257 54.6518 54.3974 54.6518 47.8247C54.6518 41.252 49.3001 35.9238 42.6983 35.9238C36.0966 35.9238 30.7449 41.252 30.7449 47.8247C30.7449 54.3974 36.0966 59.7257 42.6983 59.7257Z" fill="#555857"/>
<path d="M111.23 44.3215L111.23 16.1639C111.291 11.9597 109.681 7.90171 106.75 4.87467C103.819 1.84763 99.8044 0.0970429 95.5822 0.00458868C91.36 -0.0878655 87.2723 1.48531 84.2103 4.38112C81.1483 7.27693 79.3603 11.2605 79.2363 15.4634H82.7579C82.8829 12.253 84.2506 9.21532 86.5745 6.9863C88.8985 4.75728 91.9985 3.50981 95.2254 3.5051C95.2862 3.5051 95.3479 3.50561 95.4088 3.50647C98.722 3.55936 101.879 4.9195 104.185 7.28808C106.492 9.65667 107.759 12.84 107.71 16.1386V44.3362C107.711 44.4081 107.711 44.4798 107.71 44.545C107.681 46.7368 106.786 48.8292 105.22 50.3699C103.654 51.9107 101.542 52.776 99.3404 52.7789C99.306 52.7789 99.2716 52.7787 99.2373 52.7784C97.0148 52.7479 94.8953 51.8401 93.3447 50.2546C91.7941 48.6691 90.9392 46.5355 90.9679 44.3227L90.9871 16.3547C91.0047 15.2553 91.4547 14.2065 92.2406 13.4339C93.0265 12.6613 94.0854 12.2264 95.1899 12.2228C96.2943 12.2192 97.3562 12.6471 98.1471 13.4146C98.9381 14.1821 99.395 15.2279 99.4198 16.3272V37.6848C99.4198 38.1496 99.6052 38.5953 99.9353 38.9239C100.265 39.2525 100.713 39.4371 101.18 39.4371C101.647 39.4371 102.094 39.2525 102.424 38.9239C102.754 38.5953 102.94 38.1496 102.94 37.6848L102.939 16.2995C102.907 14.2755 102.076 12.3455 100.626 10.9267C99.1762 9.50799 97.2234 8.71457 95.1902 8.71805C93.1571 8.72154 91.2071 9.52166 89.7619 10.9454C88.3166 12.3691 87.4924 14.302 87.4673 16.326L87.4481 44.3003C87.4134 47.439 88.6307 50.4633 90.8328 52.7097C93.035 54.956 96.0422 56.2409 99.1947 56.2825C99.2438 56.2832 99.2919 56.2834 99.3411 56.2834C102.469 56.2786 105.47 55.0484 107.695 52.8586C109.92 50.6688 111.189 47.6955 111.23 44.5811C111.231 44.4897 111.231 44.3982 111.23 44.3215Z" fill="#FFD879"/>
<path d="M176.703 179.334H0V179.965H176.703V179.334Z" fill="#555857"/>
<path d="M181.975 38.9691H206.597V26.7779C206.606 23.4853 205.31 20.3222 202.991 17.9749C201.859 16.8186 200.505 15.9 199.009 15.2736C197.514 14.6471 195.908 14.3256 194.285 14.3279C187.556 14.3279 182.151 19.6535 181.978 26.4522C181.976 26.5639 181.975 26.6699 181.975 26.7779L181.975 38.9691Z" fill="#252525"/>
<path d="M177.004 105.313C177.572 105.384 178.149 105.322 178.688 105.132C179.228 104.942 179.715 104.629 180.112 104.219C180.509 103.808 180.804 103.311 180.975 102.767C181.145 102.223 181.186 101.647 181.093 101.085L180.158 95.3931H175.543L173.941 100.604C173.784 101.115 173.741 101.655 173.815 102.184C173.89 102.713 174.079 103.22 174.371 103.669C174.663 104.118 175.05 104.497 175.505 104.781C175.96 105.065 176.471 105.247 177.004 105.313Z" fill="#FFB9B9"/>
<path d="M233.511 173.205L228.031 173.875L199.768 114.918L183.811 173.875L178.043 172.152L183.426 77.5916L208.805 76.2517C218.433 87.6008 225.996 136.49 233.511 173.205Z" fill="#252525"/>
<path d="M180.715 180H169.219C168.687 180 168.175 179.795 167.791 179.429C167.408 179.062 167.181 178.562 167.159 178.033C167.143 177.649 167.235 177.269 167.425 176.935C167.615 176.602 167.895 176.327 168.234 176.144L174.846 172.564L178.92 171.482C180.714 173.528 182.429 173.539 184.081 171.888L184.623 175.483C184.707 176.043 184.669 176.614 184.511 177.157C184.354 177.701 184.08 178.205 183.709 178.633C183.338 179.062 182.879 179.406 182.362 179.642C181.845 179.878 181.284 180 180.715 180Z" fill="#252525"/>
<path d="M230.127 180H218.63C218.098 180 217.587 179.795 217.203 179.429C216.819 179.062 216.592 178.562 216.57 178.033C216.554 177.649 216.646 177.269 216.836 176.935C217.026 176.602 217.307 176.327 217.645 176.144L224.258 172.564L228.332 171.482C230.125 173.528 231.841 173.539 233.492 171.888L234.034 175.483C234.118 176.043 234.08 176.614 233.923 177.157C233.765 177.701 233.492 178.205 233.121 178.633C232.75 179.062 232.29 179.406 231.774 179.642C231.257 179.878 230.695 180 230.127 180Z" fill="#252525"/>
<path d="M174.005 96.7334L181.119 96.3505L185.541 45.2419L182.194 45.7418C180.951 45.9274 179.806 46.5192 178.938 47.4241C178.07 48.329 177.529 49.4956 177.4 50.7402L174.005 96.7334Z" fill="#FFD879"/>
<path d="M192.462 36.0539C197.665 36.0539 201.883 31.8545 201.883 26.6744C201.883 21.4943 197.665 17.2949 192.462 17.2949C187.259 17.2949 183.042 21.4943 183.042 26.6744C183.042 31.8545 187.259 36.0539 192.462 36.0539Z" fill="#FFB9B9"/>
<path d="M203.806 42.7534C196.677 63.476 190.409 64.9233 184.58 56.5355C185.093 50.2848 187.177 45.2208 190.924 41.4135C193.1 39.9284 191.816 37.1066 190.155 34.1396L199.192 31.0769C199.449 34.8574 201.112 38.7604 203.806 42.7534Z" fill="#FFB9B9"/>
<path d="M209.285 77.1129C198.963 84.2077 189.679 85.519 183.522 78.8356C181.37 69.9626 180.925 60.6604 181.97 51.4675C182.135 50.0297 182.618 48.646 183.383 47.4155C184.148 46.185 185.177 45.138 186.395 44.3495L190.924 41.4135L193.135 48.4002L201.691 39.1165L208.155 39.8932C209.403 40.0431 210.541 40.677 211.322 41.6573C212.103 42.6376 212.464 43.8851 212.326 45.1288L209.285 77.1129Z" fill="#FFD879"/>
<path d="M203.01 19.588L200.67 26.9997L180.44 26.6418C180.509 24.0486 181.39 21.5417 182.96 19.4712C184.53 17.4008 186.71 15.8702 189.196 15.0933C191.682 14.3163 194.349 14.3319 196.826 15.1377C199.303 15.9435 201.465 17.4994 203.01 19.588H203.01Z" fill="#252525"/>
<path d="M207.024 97.3477C206.933 97.3476 206.846 97.3835 206.781 97.4475C206.716 97.5115 206.68 97.5984 206.68 97.6891L206.595 134.311C206.595 134.401 206.631 134.488 206.695 134.553C206.76 134.617 206.847 134.653 206.938 134.654L236.571 134.722C236.662 134.722 236.749 134.686 236.814 134.622C236.879 134.558 236.915 134.471 236.915 134.38L237 97.7586C237 97.6679 236.964 97.5808 236.9 97.5165C236.835 97.4522 236.748 97.4159 236.657 97.4155L207.024 97.3477Z" fill="#E6E6E6"/>
<path d="M208.122 98.4453C208.031 98.4452 207.943 98.4811 207.879 98.5451C207.814 98.6091 207.778 98.696 207.777 98.7868L207.698 133.218C207.698 133.309 207.734 133.396 207.798 133.46C207.862 133.524 207.949 133.561 208.041 133.561L235.473 133.624C235.564 133.624 235.652 133.588 235.716 133.524C235.781 133.46 235.818 133.373 235.818 133.282L235.897 98.8512C235.898 98.7605 235.862 98.6734 235.797 98.6091C235.733 98.5448 235.646 98.5085 235.554 98.5082L208.122 98.4453Z" fill="#FCFFFE"/>
<path d="M231.91 113.397L211.697 113.35C211.629 113.35 211.562 113.337 211.5 113.311C211.437 113.285 211.38 113.247 211.333 113.199C211.285 113.152 211.247 113.095 211.221 113.032C211.195 112.97 211.182 112.903 211.182 112.836C211.183 112.769 211.196 112.702 211.222 112.64C211.248 112.577 211.286 112.521 211.334 112.473C211.382 112.426 211.439 112.388 211.502 112.362C211.564 112.337 211.632 112.324 211.699 112.324L231.913 112.37C231.981 112.37 232.048 112.384 232.11 112.41C232.173 112.436 232.229 112.473 232.277 112.521C232.325 112.569 232.363 112.626 232.388 112.688C232.414 112.75 232.427 112.817 232.427 112.885C232.427 112.952 232.414 113.019 232.388 113.081C232.362 113.143 232.323 113.2 232.275 113.247C232.227 113.295 232.17 113.333 232.108 113.358C232.045 113.384 231.978 113.397 231.91 113.397H231.91Z" fill="#E6E6E6"/>
<path d="M232.106 103.831L218.696 103.8C218.507 103.8 218.354 103.57 218.355 103.286C218.356 103.003 218.509 102.773 218.698 102.773L232.108 102.804C232.297 102.805 232.45 103.035 232.449 103.318C232.449 103.602 232.295 103.831 232.106 103.831Z" fill="#E6E6E6"/>
<path d="M232.099 106.774L218.689 106.744C218.5 106.743 218.347 106.513 218.348 106.229C218.349 105.946 218.502 105.716 218.691 105.717L232.102 105.748C232.291 105.748 232.443 105.978 232.443 106.262C232.442 106.545 232.288 106.775 232.099 106.774Z" fill="#E6E6E6"/>
<path d="M231.903 116.717L211.689 116.67C211.552 116.67 211.421 116.616 211.325 116.519C211.228 116.423 211.174 116.292 211.175 116.156C211.175 116.02 211.23 115.889 211.327 115.793C211.424 115.697 211.555 115.643 211.692 115.644L231.905 115.69C232.042 115.69 232.173 115.745 232.269 115.841C232.366 115.938 232.42 116.068 232.42 116.204C232.419 116.341 232.365 116.471 232.268 116.567C232.171 116.663 232.04 116.717 231.903 116.717Z" fill="#E6E6E6"/>
<path d="M231.895 120.037L211.682 119.99C211.545 119.99 211.414 119.936 211.318 119.839C211.221 119.743 211.167 119.612 211.168 119.476C211.168 119.34 211.222 119.209 211.319 119.113C211.416 119.017 211.547 118.963 211.684 118.964L231.897 119.01C232.034 119.01 232.165 119.065 232.261 119.161C232.358 119.258 232.412 119.388 232.411 119.524C232.411 119.661 232.357 119.791 232.26 119.887C232.163 119.983 232.032 120.037 231.895 120.037Z" fill="#E6E6E6"/>
<path d="M231.887 123.356L211.674 123.31C211.606 123.31 211.539 123.296 211.476 123.271C211.414 123.245 211.357 123.207 211.309 123.159C211.261 123.111 211.224 123.054 211.198 122.992C211.172 122.93 211.159 122.863 211.159 122.795C211.159 122.728 211.173 122.661 211.199 122.599C211.225 122.537 211.263 122.48 211.311 122.433C211.359 122.385 211.416 122.347 211.479 122.322C211.541 122.296 211.608 122.283 211.676 122.283L231.89 122.33C232.027 122.33 232.158 122.384 232.254 122.481C232.351 122.577 232.405 122.708 232.404 122.844C232.404 122.98 232.349 123.111 232.252 123.207C232.155 123.303 232.024 123.357 231.887 123.356Z" fill="#E6E6E6"/>
<path d="M231.88 126.676L211.666 126.63C211.529 126.63 211.398 126.575 211.302 126.479C211.205 126.382 211.151 126.252 211.152 126.115C211.152 125.979 211.207 125.849 211.304 125.753C211.401 125.657 211.532 125.603 211.669 125.603L231.882 125.65C231.95 125.65 232.017 125.663 232.079 125.689C232.142 125.715 232.199 125.753 232.246 125.801C232.294 125.849 232.332 125.905 232.358 125.968C232.384 126.03 232.397 126.097 232.397 126.164C232.396 126.232 232.383 126.298 232.357 126.361C232.331 126.423 232.293 126.479 232.245 126.527C232.197 126.574 232.14 126.612 232.077 126.638C232.015 126.663 231.947 126.677 231.88 126.676Z" fill="#E6E6E6"/>
<path d="M231.872 129.996L211.658 129.95C211.522 129.95 211.391 129.895 211.294 129.799C211.198 129.702 211.144 129.571 211.144 129.435C211.144 129.299 211.199 129.169 211.296 129.073C211.393 128.977 211.524 128.923 211.661 128.923L231.874 128.969C232.011 128.97 232.142 129.024 232.238 129.121C232.335 129.217 232.389 129.348 232.388 129.484C232.388 129.62 232.334 129.75 232.237 129.846C232.14 129.943 232.009 129.996 231.872 129.996Z" fill="#E6E6E6"/>
<path d="M213.917 107.486C215.417 107.486 216.633 106.275 216.633 104.782C216.633 103.289 215.417 102.078 213.917 102.078C212.417 102.078 211.201 103.289 211.201 104.782C211.201 106.275 212.417 107.486 213.917 107.486Z" fill="#555857"/>
<path d="M216.957 99.9536C216.389 100.024 215.813 99.9622 215.273 99.7722C214.734 99.5822 214.246 99.2695 213.849 98.8591C213.452 98.4487 213.157 97.9517 212.986 97.4078C212.816 96.8638 212.776 96.2878 212.868 95.7255L213.804 90.0334H218.418L220.02 95.2446C220.177 95.7557 220.22 96.2949 220.146 96.8244C220.072 97.3538 219.882 97.8606 219.59 98.3093C219.298 98.758 218.911 99.1377 218.457 99.4217C218.002 99.7058 217.49 99.8873 216.957 99.9536Z" fill="#FFB9B9"/>
<path d="M219.956 91.3735L212.842 90.9907L208.42 39.8821L211.767 40.3819C213.01 40.5675 214.156 41.1594 215.023 42.0643C215.891 42.9692 216.432 44.1357 216.561 45.3803L219.956 91.3735Z" fill="#FFD879"/>
</g>
<defs>
<clipPath id="clip0">
<rect width="237" height="180" fill="white"/>
</clipPath>
</defs>
</svg>
