<svg width="64" height="64" viewBox="0 0 64 64" fill="none" xmlns="http://www.w3.org/2000/svg">
<circle cx="32" cy="32" r="32" fill="#FFD879"/>
<path d="M31.8665 41.2386C35.7869 41.2386 38.5909 39.0824 38.5824 36.0994C38.5909 33.9261 37.2102 32.375 34.6449 32.0511V31.9148C36.5966 31.5653 37.9432 30.1847 37.9347 28.2244C37.9432 25.4716 35.5312 23.3068 31.9176 23.3068C28.3381 23.3068 25.6449 25.4034 25.5938 28.4205H29.1307C29.1733 27.0909 30.392 26.2301 31.9006 26.2301C33.392 26.2301 34.3892 27.1335 34.3807 28.446C34.3892 29.8182 33.2216 30.7472 31.5426 30.7472H29.9148V33.4574H31.5426C33.5199 33.4574 34.7557 34.446 34.7472 35.8523C34.7557 37.2415 33.5625 38.196 31.875 38.196C30.2472 38.196 29.0284 37.3438 28.9602 36.0653H25.2443C25.304 39.1165 28.0312 41.2386 31.8665 41.2386Z" fill="#252525"/>
</svg>
