<svg width="237" height="180" viewBox="0 0 237 180" fill="none" xmlns="http://www.w3.org/2000/svg">
<g clip-path="url(#clip0)">
<path d="M190.622 112.026C191.089 111.706 191.483 111.281 191.778 110.782C192.072 110.283 192.259 109.722 192.325 109.138C192.392 108.555 192.336 107.963 192.162 107.405C191.988 106.846 191.7 106.335 191.319 105.907L193.438 79.2605L187.368 79.9645L185.706 105.899C185.066 106.622 184.7 107.568 184.677 108.557C184.655 109.547 184.977 110.51 185.583 111.265C186.189 112.021 187.037 112.515 187.965 112.656C188.894 112.796 189.839 112.572 190.622 112.026Z" fill="#FFB8B8"/>
<path d="M169.019 175.582L164.669 175.581L162.6 157.887L169.02 157.887L169.019 175.582Z" fill="#FFB8B8"/>
<path d="M161.562 174.271H169.952V179.841H156.28C156.28 179.11 156.416 178.385 156.682 177.709C156.947 177.034 157.336 176.42 157.827 175.902C158.317 175.385 158.9 174.975 159.54 174.695C160.181 174.415 160.868 174.271 161.562 174.271Z" fill="#252525"/>
<path d="M199.89 175.582L195.539 175.581L193.47 157.887L199.89 157.887L199.89 175.582Z" fill="#FFB8B8"/>
<path d="M192.432 174.271H200.822V179.841H187.15C187.15 178.364 187.706 176.947 188.697 175.902C189.688 174.858 191.031 174.271 192.432 174.271Z" fill="#252525"/>
<path d="M169.093 164.623C169.046 164.623 168.998 164.621 168.951 164.617L162.794 164.097C162.549 164.076 162.312 164.003 162.096 163.881C161.88 163.758 161.69 163.59 161.539 163.387C161.388 163.184 161.278 162.95 161.217 162.7C161.156 162.449 161.144 162.188 161.184 161.933L170.518 101.046L171.144 92.4578C171.171 92.0563 171.322 91.6751 171.572 91.3714C171.823 91.0678 172.16 90.858 172.533 90.7736L181.923 88.6077C182.268 88.5264 182.628 88.5564 182.957 88.6939C183.286 88.8314 183.568 89.0701 183.766 89.3788L186.056 92.9076C186.955 94.2794 187.932 95.5926 188.981 96.8398C190.606 98.7908 193.367 103.122 193.615 110.212C193.682 112.54 193.911 114.861 194.301 117.154L201.861 160.096C201.899 160.348 201.888 160.605 201.828 160.852C201.769 161.099 201.662 161.331 201.514 161.533C201.367 161.735 201.182 161.903 200.97 162.027C200.759 162.151 200.526 162.228 200.285 162.253L194.449 162.719C194.031 162.763 193.613 162.648 193.268 162.396C192.923 162.144 192.675 161.77 192.568 161.342L182.215 120.743C182.194 120.663 182.15 120.593 182.088 120.543C182.026 120.493 181.95 120.466 181.872 120.466C181.793 120.466 181.718 120.493 181.656 120.544C181.594 120.594 181.549 120.664 181.529 120.744L170.806 163.233C170.706 163.631 170.483 163.983 170.173 164.235C169.863 164.486 169.484 164.622 169.093 164.623Z" fill="#252525"/>
<path d="M185.466 61.0139C190.279 61.0139 194.181 56.8992 194.181 51.8235C194.181 46.7477 190.279 42.6331 185.466 42.6331C180.653 42.6331 176.751 46.7477 176.751 51.8235C176.751 56.8992 180.653 61.0139 185.466 61.0139Z" fill="#FFB8B8"/>
<path d="M170.694 93.8393L170.514 80.715C169.85 72.321 173.375 67.9137 176.449 65.6967C177.242 65.1324 178.135 64.7437 179.075 64.554C180.014 64.3644 180.981 64.3778 181.915 64.5936L188.774 66.1572C189.729 66.3766 190.632 66.7981 191.428 67.396C192.224 67.9939 192.897 68.7559 193.406 69.6359C193.893 70.4662 194.213 71.3932 194.345 72.3593C194.478 73.3254 194.421 74.3099 194.177 75.2517C193.7 77.0144 192.644 78.5403 191.196 79.5555C185.303 83.9427 184.888 91.3121 184.884 91.3863L184.877 91.5386L170.694 93.8393Z" fill="#FFD879"/>
<path d="M192.159 84.0804H186.127C185.703 84.0799 185.297 83.9024 184.998 83.5867C184.699 83.271 184.53 82.843 184.53 82.3966V71.3581C184.53 70.068 185.016 68.8307 185.881 67.9184C186.746 67.0062 187.919 66.4937 189.143 66.4937C190.366 66.4937 191.539 67.0062 192.404 67.9184C193.269 68.8307 193.755 70.068 193.755 71.3581V82.3966C193.755 82.843 193.587 83.271 193.287 83.5867C192.988 83.9024 192.582 84.0799 192.159 84.0804Z" fill="#FFD879"/>
<path d="M151.659 86.1655C151.304 86.6128 150.862 86.9756 150.364 87.23C149.867 87.4845 149.323 87.6247 148.77 87.6416C148.217 87.6585 147.667 87.5516 147.156 87.3279C146.645 87.1043 146.184 86.7689 145.805 86.344C142.368 82.5428 147.987 76.8349 151.437 80.6444C151.559 80.7758 151.671 80.9158 151.775 81.0635L169.172 80.6075L171.248 76.6025L177.63 79.2156C176.404 81.2192 174.998 89.0828 171.793 88.7C171.373 88.7119 152.088 86.1978 151.659 86.1655Z" fill="#FFB8B8"/>
<path d="M174.931 83.1352L170.068 79.3716C169.727 79.1071 169.5 78.7107 169.435 78.2695C169.371 77.8282 169.475 77.3781 169.726 77.0179L175.919 68.1187C176.277 67.6037 176.728 67.1682 177.246 66.837C177.764 66.5059 178.339 66.2855 178.938 66.1886C179.536 66.0917 180.147 66.1201 180.736 66.2722C181.324 66.4243 181.878 66.6971 182.367 67.0751C182.855 67.453 183.268 67.9287 183.582 68.475C183.896 69.0212 184.105 69.6274 184.197 70.2588C184.289 70.8902 184.262 71.5345 184.118 72.1549C183.973 72.7754 183.715 73.3598 183.356 73.8748L177.163 82.7739C176.912 83.1335 176.536 83.3735 176.118 83.4413C175.7 83.509 175.273 83.3989 174.931 83.1352Z" fill="#FFD879"/>
<path d="M187.211 56.6003C187.493 55.9816 187.59 55.2877 187.491 54.6095C187.393 53.9313 187.102 53.3003 186.658 52.799C185.018 51.0557 182.457 52.2185 180.241 52.0478C176.55 51.7635 174.037 47.1223 175.138 43.3968C176.24 39.6713 180.156 37.3595 183.85 37.6047C187.543 37.8498 190.887 40.259 193.113 43.3765C194.636 40.7906 198.38 40.489 200.795 42.1559C203.211 43.8229 204.461 46.8693 204.978 49.8646C205.494 52.8599 205.41 55.9381 205.845 58.9478C206.899 66.2434 211.364 73.1133 217.825 75.9492C224.286 78.7852 232.553 76.9625 236.78 71.0808C237.602 78.2086 236.16 85.4225 232.68 91.5941C229.2 97.7657 223.879 102.547 217.548 105.189C214.047 106.651 210.18 107.427 206.495 106.614C200.544 105.303 195.916 99.9365 193.899 93.8892C191.882 87.8418 192.123 81.2062 193.103 74.8795C193.706 70.9826 194.374 66.3675 191.679 63.6265C190.923 62.9625 190.033 62.4893 189.076 62.2427C188.569 62.0821 188.104 61.8015 187.715 61.4225C187.327 61.0434 187.025 60.5758 186.834 60.0553C186.643 59.5347 186.567 58.9751 186.612 58.4188C186.657 57.8626 186.821 57.3246 187.093 56.8457C187.137 56.7642 187.176 56.6824 187.211 56.6003Z" fill="#252525"/>
<path d="M218.498 180H137.596C137.502 180 137.412 179.961 137.345 179.891C137.279 179.82 137.241 179.725 137.241 179.626C137.241 179.527 137.279 179.431 137.345 179.361C137.412 179.291 137.502 179.252 137.596 179.252H218.498C218.592 179.252 218.682 179.291 218.749 179.361C218.815 179.431 218.853 179.527 218.853 179.626C218.853 179.725 218.815 179.82 218.749 179.891C218.682 179.961 218.592 180 218.498 180Z" fill="#555857"/>
<path d="M22.5555 84.9826H12.6202C11.8673 84.9826 11.1453 84.6672 10.613 84.1058C10.0806 83.5444 9.78152 82.783 9.78152 81.9891C9.78152 81.1952 10.0806 80.4338 10.613 79.8724C11.1453 79.311 11.8673 78.9956 12.6202 78.9956H22.5555C23.3083 78.9956 24.0303 79.311 24.5627 79.8724C25.095 80.4338 25.3941 81.1952 25.3941 81.9891C25.3941 82.783 25.095 83.5444 24.5627 84.1058C24.0303 84.6672 23.3083 84.9826 22.5555 84.9826Z" fill="#555857"/>
<path d="M34.2649 95.0858H12.6202C11.8673 95.0858 11.1453 94.7704 10.613 94.2091C10.0806 93.6477 9.78152 92.8863 9.78152 92.0923C9.78152 91.2984 10.0806 90.537 10.613 89.9756C11.1453 89.4143 11.8673 89.0989 12.6202 89.0989H34.2649C35.0177 89.0989 35.7398 89.4143 36.2721 89.9756C36.8045 90.537 37.1035 91.2984 37.1035 92.0923C37.1035 92.8863 36.8045 93.6477 36.2721 94.2091C35.7398 94.7704 35.0177 95.0858 34.2649 95.0858Z" fill="#555857"/>
<rect y="16" width="148" height="87" rx="7" fill="#FCFFFE"/>
<path d="M141.933 15.384H6.7418C5.57735 15.3826 4.43264 15.7012 3.42045 16.3083C3.17801 16.4534 2.94456 16.6146 2.72153 16.791C1.877 17.4512 1.19092 18.311 0.718305 19.3013C0.245686 20.2916 -0.000323339 21.3849 3.18947e-07 22.4936V96.5825C0.00158912 98.4676 0.712394 100.275 1.97638 101.608C3.24037 102.941 4.95425 103.69 6.7418 103.692H141.933C143.72 103.69 145.434 102.941 146.698 101.608C147.962 100.275 148.673 98.4676 148.674 96.5825V22.4936C148.673 20.6085 147.962 18.8012 146.698 17.4683C145.434 16.1353 143.72 15.3857 141.933 15.384ZM147.965 96.5825C147.962 98.2689 147.326 99.8854 146.195 101.078C145.065 102.27 143.532 102.941 141.933 102.944H6.7418C5.14267 102.941 3.60969 102.27 2.47894 101.078C1.34818 99.8855 0.711926 98.2689 0.709663 96.5825V22.4936C0.714702 21.1492 1.12125 19.8408 1.87158 18.7539C2.62191 17.6671 3.67787 16.8572 4.8895 16.4392C4.93923 16.4243 4.98531 16.4056 5.03504 16.3906C5.5893 16.2188 6.16409 16.1318 6.7418 16.1324H141.933C143.532 16.1348 145.065 16.8058 146.195 17.9982C147.326 19.1906 147.962 20.8072 147.965 22.4936V96.5825Z" fill="#555857"/>
<path d="M74.1611 71.5122C80.432 71.5122 85.5157 66.1512 85.5157 59.5382C85.5157 52.9251 80.432 47.5642 74.1611 47.5642C67.8901 47.5642 62.8065 52.9251 62.8065 59.5382C62.8065 66.1512 67.8901 71.5122 74.1611 71.5122Z" fill="#FFD879"/>
<path d="M74.1894 59.5068C73.6509 59.5065 73.1213 59.3625 72.6498 59.0882L2.02303 18.095C1.9406 18.0471 1.87957 17.9667 1.85336 17.8714C1.82716 17.7761 1.83793 17.6737 1.8833 17.5868C1.92868 17.4999 2.00495 17.4355 2.09533 17.4079C2.1857 17.3802 2.28278 17.3916 2.36522 17.4394L72.992 58.4326C73.3522 58.6423 73.7562 58.7542 74.1677 58.758C74.5791 58.7618 74.985 58.6575 75.3486 58.4545L147.138 18.5178C147.179 18.4947 147.224 18.4805 147.271 18.4759C147.317 18.4712 147.364 18.4763 147.409 18.4908C147.453 18.5053 147.495 18.5289 147.531 18.5603C147.566 18.5917 147.596 18.6302 147.618 18.6737C147.64 18.7172 147.653 18.7648 147.657 18.8138C147.662 18.8628 147.657 18.9122 147.643 18.9592C147.629 19.0062 147.607 19.0498 147.577 19.0876C147.547 19.1255 147.51 19.1567 147.469 19.1796L75.6797 59.1163C75.2205 59.3725 74.7089 59.5065 74.1894 59.5068Z" fill="#555857"/>
</g>
<defs>
<clipPath id="clip0">
<rect width="237" height="180" fill="white"/>
</clipPath>
</defs>
</svg>
