<svg width="48" height="43" viewBox="0 0 48 43" fill="none" xmlns="http://www.w3.org/2000/svg">
<path d="M34.5 0C30.44 0 26.5434 1.89 24 4.87667C21.4567 1.89 17.56 0 13.5 0C6.31335 0 0.666687 5.64667 0.666687 12.8333C0.666687 21.6533 8.60002 28.84 20.6167 39.76L24 42.8167L27.3834 39.7367C39.4 28.84 47.3334 21.6533 47.3334 12.8333C47.3334 5.64667 41.6867 0 34.5 0ZM24.2334 36.2833L24 36.5167L23.7667 36.2833C12.66 26.2267 5.33335 19.5767 5.33335 12.8333C5.33335 8.16667 8.83335 4.66667 13.5 4.66667C17.0934 4.66667 20.5934 6.97667 21.83 10.1733H26.1934C27.4067 6.97667 30.9067 4.66667 34.5 4.66667C39.1667 4.66667 42.6667 8.16667 42.6667 12.8333C42.6667 19.5767 35.34 26.2267 24.2334 36.2833Z" fill="#FFD879"/>
</svg>
