<svg width="40" height="48" viewBox="0 0 40 48" fill="none" xmlns="http://www.w3.org/2000/svg">
<path d="M8.16667 0.666656C10.7333 0.666656 12.8333 2.76666 12.8333 5.33332C12.8333 7.89999 10.7333 9.99999 8.16667 9.99999C5.6 9.99999 3.5 7.89999 3.5 5.33332C3.5 2.76666 5.6 0.666656 8.16667 0.666656ZM29.1667 18.1667C29.1667 20.1033 30.73 21.6667 32.6667 21.6667C34.6033 21.6667 36.1667 20.1033 36.1667 18.1667C36.1667 16.23 34.6033 14.6667 32.6667 14.6667C30.73 14.6667 29.1667 16.23 29.1667 18.1667ZM36.1667 24H29.54C28.1867 24.0233 26.88 24.7467 26.1567 26.0067L24.01 29.0867L15.68 14.6667C15.2713 13.9678 14.6895 13.386 13.9907 12.9773C13.2918 12.5686 12.4995 12.3468 11.69 12.3333H4.66667C2.1 12.3333 0 14.4333 0 17V31H3.5V47.3333H15.1667V23.09L21.07 33.3333H26.2033L28 30.7667V47.3333H37.3333V35.6667H39.6667V27.5C39.6667 25.5867 38.1033 24 36.1667 24Z" fill="#FFD879"/>
</svg>
